<?xml version="1.0" encoding="UTF-8" standalone="no"?>
<svg
   xmlns:dc="http://purl.org/dc/elements/1.1/"
   xmlns:cc="http://creativecommons.org/ns#"
   xmlns:rdf="http://www.w3.org/1999/02/22-rdf-syntax-ns#"
   xmlns:svg="http://www.w3.org/2000/svg"
   xmlns="http://www.w3.org/2000/svg"
   width="24px"
   height="24px"
   viewBox="0 0 24 24"
   version="1.1"
   id="svg2">
  <metadata
     id="metadata18">
    <rdf:RDF>
      <cc:Work
         rdf:about="">
        <dc:format>image/svg+xml</dc:format>
        <dc:type
           rdf:resource="http://purl.org/dc/dcmitype/StillImage" />
        <dc:title>Artboard</dc:title>
      </cc:Work>
    </rdf:RDF>
  </metadata>
  <!-- Generator: Sketch 41.2 (35397) - http://www.bohemiancoding.com/sketch -->
  <title
     id="title4">Artboard</title>
  <desc
     id="desc6">Created with Sketch.</desc>
  <defs
     id="defs8" />
  <path
     style="fill:#466478;fill-rule:evenodd"
     d="m 12.242932,6.9277765 c -2.8158752,0 -5.1012222,2.2853472 -5.1012222,5.1012225 0,2.815875 2.285347,5.101221 5.1012222,5.101221 0.290959,0 0.575165,-0.02885 0.852861,-0.07572 L 12.089496,15.310918 A 3.2892677,3.2892677 0 0 1 8.9530411,12.028999 3.2892677,3.2892677 0 0 1 12.242932,8.739108 3.2892677,3.2892677 0 0 1 12.537846,8.7550544 L 13.492332,7.1011425 C 13.090388,6.9992201 12.676426,6.9277816 12.242932,6.9277816 Z m 3.355647,1.2872606 -0.924597,1.6040961 a 3.2892677,3.2892677 0 0 1 0.635661,1.0182518 l 1.881075,0 C 16.941245,9.8006852 16.373463,8.8974438 15.598579,8.2150371 Z M 15.305657,13.21862 a 3.2892677,3.2892677 0 0 1 -0.924596,1.303202 l 0.910648,1.574205 c 0.933337,-0.701359 1.617774,-1.706766 1.899009,-2.877407 l -1.885061,0 z"
     id="path4216" />
  <path
     style="fill:#466478;fill-rule:evenodd"
     id="path4218"
     d="m 8.4733875,10.835313 0,2.366967 -6.3767859,0 0,-2.366967 z" />
  <circle
     style="fill:#4b6478;fill-rule:evenodd"
     id="circle4220"
     r="2.9750323"
     cy="12.028998"
     cx="2.9750323" />
  <path
     style="opacity:0.5;fill:#4b6478;fill-opacity:1;fill-rule:evenodd"
     d="m 18.354035,0.41774021 c -0.118125,-0.001428 -0.246532,0.0240574 -0.376613,0.0817012 L 14.316897,2.1214707 c -0.524406,0.2315955 -0.543519,0.6449536 -0.0538,0.9285815 l 1.175672,0.6775065 -2.90132,5.0274927 a 3.2892677,3.2892677 0 0 0 -0.294916,-0.015946 3.2892677,3.2892677 0 0 0 -3.2898898,3.2898906 3.2892677,3.2892677 0 0 0 3.1364538,3.281919 l 2.897335,5.019522 -1.175672,0.677505 c -0.488697,0.282608 -0.466522,0.699027 0.0538,0.928583 l 3.660525,1.622028 c 0.523385,0.230575 0.986927,-0.04254 1.048142,-0.607763 l 0.424438,-3.981344 c 0.06121,-0.569296 -0.28543,-0.79273 -0.775147,-0.510122 l -1.173679,0.679499 -2.668179,-4.617004 a 3.2892677,3.2892677 0 0 0 0.924596,-1.303202 l 4.282237,0 0,1.357005 c 0,0.565215 0.371831,0.753099 0.830941,0.418459 l 3.236088,-2.359315 c 0.46217,-0.337701 0.45911,-0.8769 0,-1.21154 L 20.418431,9.06391 C 19.95524,8.7272293 19.58749,8.9171539 19.58749,9.4823696 l 0,1.3550124 -4.278251,0 A 3.2892677,3.2892677 0 0 0 14.673583,9.8191302 l 2.827592,-4.8999628 1.175673,0.6775055 c 0.488697,0.2826076 0.838353,0.054073 0.777138,-0.5101222 L 19.029549,1.1052064 C 18.983638,0.67823408 18.708411,0.42204156 18.354035,0.41773715 Z"
     id="path4222" />
  <path
     id="bg-7"
     d="m 4.0186562,16.218177 a 3.8277421,3.8273767 0 0 0 -3.82759023,3.827956 3.8277421,3.8273767 0 0 0 0.77414394,2.301744 c 0.13973159,-0.0074 0.24363299,-0.03663 0.25877939,-0.09721 0,-0.06895 -3.011e-4,-0.172426 -0.017557,-0.293109 -0.068963,-0.758578 -0.103188,-1.568923 -0.068708,-2.379225 -0.18966379,0.01724 -0.36268069,0.01784 -0.53510149,0.03508 0.017241,-0.155161 0.017836,-0.293636 0.035076,-0.448799 0.1724206,-0.01724 0.344708,-0.03393 0.53437179,-0.05117 0.01724,-0.120684 0.017107,-0.258677 0.03436,-0.379359 0.086203,-0.775821 0.9138586,-1.241546 1.5863023,-1.43119 0.3103554,-0.06895 0.5002366,-0.103807 0.6381737,-0.103807 0.051721,0 0.10325,-0.01724 0.154975,0 0.1379433,0 0.2931853,4.88e-4 0.3793968,0.06945 0.155179,0.120686 0.292934,0.224324 0.4481117,0.345006 0.017253,0.01724 0.034493,0.05135 0,0.10307 -0.068963,0.06895 -0.1379128,0.155004 -0.2068776,0.24121 -0.05171,0.0517 -0.1207809,0.03477 -0.1725198,0.01754 C 3.9132967,17.923651 3.7928369,17.854579 3.6721417,17.802857 3.4479954,17.699413 3.2234533,17.5963 2.9820652,17.613542 c -0.1379432,0 -0.2927069,0.154503 -0.3099488,0.37863 -0.01724,0.327567 -0.034663,0.672967 -0.051916,1.035015 0.4310508,0 0.8624136,-0.01753 1.3107073,-0.01753 l 0,0.293109 c -0.1379431,0.06895 -0.2761195,0.137896 -0.4312995,0.206858 -0.2931137,0.01724 -0.5862941,0.01753 -0.8794078,0.01753 -0.017253,0.879262 -1.263e-4,1.741124 0.03436,2.534186 0.017253,0.120684 0.017423,0.241258 0.051903,0.327462 0.034493,0.103438 0.2758875,0.172376 0.79315,0.206857 l 0,0.258755 c -0.848511,-0.01664 -1.6450557,-0.09862 -2.2888035,-0.212702 a 3.8277421,3.8273767 0 0 0 2.8078235,1.231641 3.8277421,3.8273767 0 0 0 3.8275903,-3.827225 3.8277421,3.8273767 0 0 0 -0.6345192,-2.108044 c -0.040577,0.185497 -0.061847,0.370826 -0.108191,0.571598 -0.5689891,-0.06895 -1.2414049,-0.120465 -2.0000553,-0.154958 -0.068963,0.189644 -0.1210972,0.379331 -0.1900645,0.586216 1.2586721,0.08621 1.8792059,0.413359 2.2412905,0.809887 0.3620833,0.39653 0.4309961,0.828105 0.4137542,1.241875 C 7.5167174,21.66508 7.2237571,22.078477 6.8271888,22.388806 6.41338,22.681893 5.9305927,22.83675 5.5340257,22.87123 4.9650367,22.92294 4.1895899,22.78536 4.0171703,22.681915 3.9137145,22.457789 3.8099416,22.216457 3.7064895,21.975092 c -0.017253,-0.05172 -0.034615,-0.103545 0.03436,-0.172504 0.1034559,-0.103438 0.2068001,-0.224019 0.3274941,-0.327463 0.051709,-0.03449 0.1212307,-0.0865 0.1557107,-0.01755 0.155179,0.241367 0.3101746,0.465887 0.4481117,0.690013 0.155179,0.241365 0.4139231,0.465004 0.9656703,0.430525 0.4655368,-0.03449 0.8273822,-0.396243 0.8618659,-0.775533 0.034493,-0.706856 -0.6893978,-1.224128 -2.5687845,-1.379291 0.3620834,-1.103388 0.7069127,-2.154711 1.0000264,-2.982253 0.448295,0.01724 0.861509,0.05134 1.2580761,0.103069 0.2940995,0.03268 0.5579053,0.09492 0.8340879,0.13084 A 3.8277421,3.8273767 0 0 0 4.018638,16.218164 Z"
     style="fill:#466478;fill-opacity:1" />
</svg>
